<?xml version="1.0" encoding="UTF-8" standalone="no"?>
<svg
   width="496.95"
   height="496.95"
   version="1.1"
   viewBox="0 0 496.94 496.94"
   id="svg8"
   sodipodi:docname="icon.svg"
   inkscape:version="1.1.2 (0a00cf5339, 2022-02-04)"
   xmlns:inkscape="http://www.inkscape.org/namespaces/inkscape"
   xmlns:sodipodi="http://sodipodi.sourceforge.net/DTD/sodipodi-0.dtd"
   xmlns="http://www.w3.org/2000/svg"
   xmlns:svg="http://www.w3.org/2000/svg">
  <defs
     id="defs12" />
  <sodipodi:namedview
     id="namedview10"
     pagecolor="#ffffff"
     bordercolor="#666666"
     borderopacity="1.0"
     inkscape:pageshadow="2"
     inkscape:pageopacity="0.0"
     inkscape:pagecheckerboard="0"
     showgrid="false"
     inkscape:zoom="1.3723714"
     inkscape:cx="322.07024"
     inkscape:cy="259.04066"
     inkscape:window-width="1920"
     inkscape:window-height="1024"
     inkscape:window-x="0"
     inkscape:window-y="32"
     inkscape:window-maximized="1"
     inkscape:current-layer="svg8" />
  <rect
     x="-1.2207e-06"
     y="-1.2207e-06"
     width="496.94"
     height="496.94"
     fill="#ffffff"
     stroke-width="11.338"
     id="rect2"
     style="fill:#ffffff"
     rx="49.998993"
     ry="49.998993" />
  <path
     d="m 332.19301,196.19631 c 0,-46.17011 -37.56322,-83.73691 -83.73691,-83.73691 -46.15845,0 -83.70911,37.56322 -83.70911,83.73691 0,46.1737 37.55066,83.73691 83.70911,83.73691 46.17369,0 83.73691,-37.5632 83.73691,-83.73691 z m -136.32362,0 c 0,-29.01193 23.59092,-52.6181 52.5903,-52.6181 29.01193,0 52.6181,23.60348 52.6181,52.6181 0,29.01463 -23.60348,52.6181 -52.6181,52.6181 -28.99938,0 -52.5903,-23.60347 -52.5903,-52.6181 z"
     fill="#dc2626"
     stroke-width="3.11188"
     id="path4" />
  <path
     d="m 260.1076,438.14181 c 14.39206,-16.25944 140.63783,-161.12358 140.63783,-240.23237 0,-83.95486 -68.31787,-152.261975 -152.28888,-152.261975 -83.95487,0 -152.26198,68.301735 -152.26198,152.261975 0,79.1034 126.21528,223.97113 140.61092,240.22341 l 11.64747,13.15968 z M 127.31787,197.91841 c 0,-66.7958 54.34199,-121.13868 121.13868,-121.13868 66.81104,0 121.16559,54.342 121.16559,121.13868 0,51.76512 -78.95092,156.047 -121.16559,206.09541 C 206.24457,353.97527 127.31787,249.72479 127.31787,197.91841 Z"
     fill="#dc2626"
     stroke-width="3.11188"
     id="path6" />
</svg>
