<svg width="496.95" height="496.95" viewBox="0 0 496.94 496.94" xmlns="http://www.w3.org/2000/svg"><rect width="496.94" height="496.94" fill="#fff" style="fill:#fff" rx="49.999" ry="49.999"/><path d="M332.193 196.196c0-46.17-37.563-83.737-83.737-83.737-46.158 0-83.709 37.564-83.709 83.737 0 46.174 37.55 83.737 83.71 83.737 46.173 0 83.736-37.563 83.736-83.737zm-136.324 0c0-29.012 23.591-52.618 52.59-52.618 29.013 0 52.619 23.604 52.619 52.618 0 29.015-23.604 52.618-52.618 52.618-29 0-52.59-23.603-52.59-52.618z" fill="#dc2626"/><path d="M260.108 438.142c14.392-16.26 140.637-161.124 140.637-240.233 0-83.954-68.317-152.262-152.288-152.262-83.955 0-152.262 68.302-152.262 152.262 0 79.104 126.215 223.972 140.61 240.224l11.648 13.16zm-132.79-240.224c0-66.795 54.342-121.138 121.139-121.138 66.81 0 121.165 54.342 121.165 121.138 0 51.766-78.95 156.047-121.165 206.096-42.212-50.039-121.14-154.29-121.14-206.096Z" fill="#dc2626"/></svg>