<?xml version="1.0" encoding="UTF-8" standalone="no"?>
<svg
   width="496.95001"
   height="496.95001"
   version="1.1"
   viewBox="0 0 496.94 496.94"
   id="svg8"
   sodipodi:docname="icon.svg"
   inkscape:version="1.1.2 (0a00cf5339, 2022-02-04)"
   inkscape:export-filename="/home/tiberius/Público/sshfs/static/img/icon.png"
   inkscape:export-xdpi="96"
   inkscape:export-ydpi="96"
   xmlns:inkscape="http://www.inkscape.org/namespaces/inkscape"
   xmlns:sodipodi="http://sodipodi.sourceforge.net/DTD/sodipodi-0.dtd"
   xmlns="http://www.w3.org/2000/svg"
   xmlns:svg="http://www.w3.org/2000/svg">
  <defs
     id="defs12" />
  <sodipodi:namedview
     id="namedview10"
     pagecolor="#ffffff"
     bordercolor="#666666"
     borderopacity="1.0"
     inkscape:pageshadow="2"
     inkscape:pageopacity="0.0"
     inkscape:pagecheckerboard="0"
     showgrid="false"
     inkscape:zoom="0.97041312"
     inkscape:cx="289.5674"
     inkscape:cy="205.58255"
     inkscape:window-width="1920"
     inkscape:window-height="1024"
     inkscape:window-x="0"
     inkscape:window-y="32"
     inkscape:window-maximized="1"
     inkscape:current-layer="svg8" />
  <rect
     style="fill:#dc2626;fill-opacity:1;stroke-width:11.3384"
     id="rect1253"
     width="496.94"
     height="496.94"
     x="-1.2207031e-06"
     y="-1.2207031e-06"
     ry="49.998993"
     rx="49.998993" />
  <path
     d="m 309.9744,210.06883 c 0,-33.91737 -27.59461,-61.51461 -61.51461,-61.51461 -33.90881,0 -61.49418,27.59461 -61.49418,61.51461 0,33.92001 27.58537,61.51461 61.49418,61.51461 33.92,0 61.51461,-27.59459 61.51461,-61.51461 z m -100.14573,0 c 0,-21.31267 17.3303,-38.65418 38.63376,-38.65418 21.31267,0 38.65418,17.33953 38.65418,38.65418 0,21.31466 -17.33953,38.65418 -38.65418,38.65418 -21.30346,0 -38.63376,-17.33952 -38.63376,-38.65418 z"
     fill="#dc2626"
     stroke-width="2.28604"
     id="path4"
     inkscape:export-filename="/home/tiberius/Público/sshfs/static/img/path6.png"
     inkscape:export-xdpi="96"
     inkscape:export-ydpi="96"
     style="fill:#ffffff" />
  <path
     d="m 257.01919,387.80625 c 10.57266,-11.94447 103.31502,-118.36422 103.31502,-176.47892 0,-61.67472 -50.18751,-111.854328 -111.87409,-111.854328 -61.67472,0 -111.85433,50.175658 -111.85433,111.854328 0,58.11074 92.71997,164.53313 103.29526,176.47234 l 8.55643,9.66733 z M 159.46952,211.33392 c 0,-49.06937 39.92058,-88.99061 88.9906,-88.99061 49.08056,0 89.01037,39.92059 89.01037,88.99061 0,38.02756 -57.99873,114.63486 -89.01037,151.40131 -31.00966,-36.7592 -88.9906,-113.34344 -88.9906,-151.40131 z"
     fill="#dc2626"
     stroke-width="2.28604"
     id="path6"
     inkscape:export-filename="/home/tiberius/Público/sshfs/static/img/path6.png"
     inkscape:export-xdpi="96"
     inkscape:export-ydpi="96"
     style="fill:#ffffff" />
</svg>
