<?xml version="1.0" encoding="UTF-8" standalone="no"?>
<svg
   width="512"
   height="512"
   viewBox="0 0 511.98968 511.98968"
   version="1.1"
   id="svg8"
   sodipodi:docname="icon.svg"
   inkscape:version="1.1.2 (0a00cf5339, 2022-02-04)"
   xmlns:inkscape="http://www.inkscape.org/namespaces/inkscape"
   xmlns:sodipodi="http://sodipodi.sourceforge.net/DTD/sodipodi-0.dtd"
   xmlns="http://www.w3.org/2000/svg"
   xmlns:svg="http://www.w3.org/2000/svg">
  <defs
     id="defs12" />
  <sodipodi:namedview
     id="namedview10"
     pagecolor="#ffffff"
     bordercolor="#666666"
     borderopacity="1.0"
     inkscape:pageshadow="2"
     inkscape:pageopacity="0.0"
     inkscape:pagecheckerboard="0"
     showgrid="false"
     inkscape:zoom="0.97041315"
     inkscape:cx="301.93325"
     inkscape:cy="263.28992"
     inkscape:window-width="1920"
     inkscape:window-height="1024"
     inkscape:window-x="0"
     inkscape:window-y="32"
     inkscape:window-maximized="1"
     inkscape:current-layer="svg8" />
  <rect
     style="fill:#dc2626;fill-opacity:1;stroke-width:11.6818"
     width="511.98969"
     height="511.98969"
     id="rect2"
     x="0"
     y="0" />
  <path
     d="m 319.36147,216.43088 c 0,-34.9452 -28.42968,-63.37797 -63.37693,-63.37797 -34.93593,0 -63.35633,28.43071 -63.35633,63.37797 0,34.94725 28.4204,63.37693 63.35633,63.37693 34.94725,0 63.37693,-28.42968 63.37693,-63.37693 z m -103.17786,0 c 0,-21.95846 17.85483,-39.82463 39.80299,-39.82463 21.95845,0 39.82565,17.86514 39.82565,39.82463 0,21.95948 -17.86513,39.82462 -39.82565,39.82462 -21.94816,0 -39.80299,-17.86514 -39.80299,-39.82462 z"
     fill="#dc2626"
     style="fill:#ffffff;stroke-width:1.03028"
     id="path4" />
  <path
     d="m 264.80377,399.55059 c 10.89217,-12.30572 106.44284,-121.94862 106.44284,-181.82362 0,-63.54177 -51.7069,-115.24146 -115.26207,-115.24146 -63.54281,0 -115.24147,51.69557 -115.24147,115.24146 0,59.87088 95.528,169.51584 106.42326,181.81744 l 8.81512,9.95976 z M 164.2995,217.73419 c 0,-50.55607 41.12897,-91.68504 91.68504,-91.68504 50.56637,0 91.70564,41.12897 91.70564,91.68504 0,39.17863 -59.75445,118.10668 -91.70564,155.98613 C 224.03541,335.84809 164.2995,256.94476 164.2995,217.73419 Z"
     fill="#dc2626"
     style="fill:#ffffff;stroke-width:1.03028"
     id="path6" />
</svg>
