<svg width="512" height="512" viewBox="0 0 511.99 511.99" xmlns="http://www.w3.org/2000/svg"><rect style="fill:#dc2626;fill-opacity:1;stroke-width:11.6818" width="511.99" height="511.99" rx="59.999" ry="59.999"/><path d="M319.361 216.43c0-34.944-28.43-63.377-63.376-63.377-34.936 0-63.357 28.43-63.357 63.378 0 34.947 28.42 63.377 63.357 63.377 34.947 0 63.376-28.43 63.376-63.377zm-103.177 0c0-21.958 17.854-39.824 39.803-39.824 21.958 0 39.825 17.865 39.825 39.825 0 21.96-17.865 39.824-39.825 39.824-21.949 0-39.803-17.865-39.803-39.824z" fill="#dc2626" style="fill:#fff;stroke-width:1.03028"/><path d="M264.804 399.55c10.892-12.305 106.443-121.948 106.443-181.823 0-63.542-51.707-115.241-115.262-115.241-63.543 0-115.242 51.695-115.242 115.241 0 59.87 95.528 169.516 106.423 181.817l8.815 9.96zM164.3 217.735c0-50.556 41.128-91.685 91.685-91.685 50.566 0 91.705 41.13 91.705 91.685 0 39.179-59.754 118.107-91.705 155.986-31.95-37.872-91.686-116.775-91.686-155.986Z" fill="#dc2626" style="fill:#fff;stroke-width:1.03028"/></svg>